<?xml version="1.0" encoding="iso-8859-1"?>
<!-- Uploaded to: SVG Repo, www.svgrepo.com, Generator: SVG Repo Mixer Tools -->
<svg version="1.1" id="Layer_1" xmlns="http://www.w3.org/2000/svg" xmlns:xlink="http://www.w3.org/1999/xlink" 
	 viewBox="0 0 392.598 392.598" xml:space="preserve">
<path style="fill:#FFFFFF;" d="M93.705,21.786c-5.301,0-9.632,4.331-9.632,9.632v310.691c0,5.301,4.331,9.632,9.632,9.632h205.253
	c5.301,0,9.632-4.331,9.632-9.632V31.547c0-5.301-4.331-9.632-9.632-9.632H93.705V21.786z"/>
<rect x="105.794" y="43.572" style="fill:#56ACE0;" width="180.945" height="286.448"/>
<path style="fill:#FFC10D;" d="M196.299,62.966c-39.176,0-71.111,31.935-71.111,71.111s31.935,71.111,71.111,71.111
	s71.111-31.935,71.111-71.111S235.475,62.966,196.299,62.966z"/>
<path style="fill:#194F82;" d="M196.299,41.18c-51.2,0-92.897,41.632-92.897,92.897s41.697,92.962,92.897,92.962
	s92.897-41.632,92.897-92.897S247.499,41.18,196.299,41.18z M196.299,205.253c-39.176,0-71.111-31.935-71.111-71.111
	s31.935-71.111,71.111-71.111s71.111,31.935,71.111,71.111S235.475,205.253,196.299,205.253z"/>
<path style="fill:#FFFFFF;" d="M196.299,114.489c-10.796,0-19.653,8.792-19.653,19.653c0,10.861,8.792,19.653,19.653,19.653
	s19.653-8.792,19.653-19.653C215.952,123.216,207.095,114.489,196.299,114.489z"/>
<path style="fill:#194F82;" d="M196.299,92.638c-22.885,0-41.438,18.554-41.438,41.438c0,22.885,18.554,41.438,41.438,41.438
	s41.438-18.554,41.438-41.438C237.737,111.257,219.184,92.638,196.299,92.638z M196.299,153.665
	c-10.796,0-19.653-8.792-19.653-19.653s8.792-19.653,19.653-19.653s19.653,8.792,19.653,19.653S207.095,153.665,196.299,153.665z"/>
<path style="fill:#FFFFFF;" d="M196.299,271.451c-10.796,0-19.653,8.792-19.653,19.653c0,10.861,8.857,19.588,19.653,19.588
	c10.796,0,19.653-8.792,19.653-19.653C215.952,280.242,207.095,271.451,196.299,271.451z"/>
<g>
	<path style="fill:#194F82;" d="M196.299,249.665c-22.885,0-41.438,18.554-41.438,41.438s18.554,41.438,41.438,41.438
		s41.438-18.554,41.438-41.438C237.737,268.283,219.184,249.665,196.299,249.665z M196.299,310.691
		c-10.796,0-19.653-8.792-19.653-19.653c0-10.861,8.792-19.653,19.653-19.653s19.653,8.792,19.653,19.653
		C215.952,301.899,207.095,310.691,196.299,310.691z"/>
	<path style="fill:#194F82;" d="M298.893,0H93.705c-17.39,0-31.547,14.158-31.547,31.547v310.691
		c0,15.838,11.766,28.897,26.958,31.16v8.275c0,6.012,4.848,10.925,10.925,10.925c6.012,0,10.925-4.848,10.925-10.925v-7.952
		h170.667v7.952c0,6.012,4.848,10.925,10.925,10.925c6.012,0,10.925-4.848,10.925-10.925v-8.275
		c15.192-2.263,26.958-15.321,26.958-31.16V31.547C330.376,14.158,316.283,0,298.893,0z M308.59,342.238
		c0,5.301-4.331,9.632-9.632,9.632H93.705c-5.301,0-9.632-4.331-9.632-9.632v-37.56h21.463c6.012,0,10.925-4.848,10.925-10.925
		c0-6.012-4.848-10.925-10.925-10.925H84.073v-21.786h43.248c6.012,0,10.925-4.848,10.925-10.925s-4.848-10.925-10.925-10.925
		H84.073V31.547c0-5.301,4.331-9.632,9.632-9.632h205.253c5.301,0,9.632,4.331,9.632,9.632V342.238z"/>
</g>
</svg>