<?xml version="1.0" encoding="iso-8859-1"?>
<!-- Uploaded to: SVG Repo, www.svgrepo.com, Generator: SVG Repo Mixer Tools -->
<svg fill="#000000" height="800px" width="800px" version="1.1" id="Layer_1" xmlns="http://www.w3.org/2000/svg" xmlns:xlink="http://www.w3.org/1999/xlink" 
	 viewBox="0 0 512 512" xml:space="preserve">
<g>
	<g>
		<path d="M75.722,0v512h360.556V0H75.722z M109.113,478.609V33.391h293.773v445.217H109.113z"/>
	</g>
</g>
<g>
	<g>
		<path d="M256.002,63.183c-41.395,0-75.071,33.676-75.071,75.071c0,41.394,33.676,75.07,75.071,75.07
			c41.394,0,75.071-33.676,75.071-75.07C331.073,96.86,297.397,63.183,256.002,63.183z M256.002,179.935
			c-22.983,0-41.68-18.697-41.68-41.679c0-22.983,18.697-41.68,41.68-41.68c22.982,0,41.68,18.697,41.68,41.68
			C297.682,161.237,278.985,179.935,256.002,179.935z"/>
	</g>
</g>
<g>
	<g>
		<circle cx="256.001" cy="138.251" r="14.834"/>
	</g>
</g>
<g>
	<g>
		<path d="M256.002,243.969c-56.476,0-102.422,45.946-102.422,102.423s45.946,102.423,102.422,102.423
			s102.422-45.946,102.422-102.423C358.424,289.917,312.477,243.969,256.002,243.969z M256.002,415.426
			c-38.064,0-69.031-30.967-69.031-69.032s30.967-69.032,69.031-69.032c38.064,0,69.031,30.967,69.031,69.032
			S294.066,415.426,256.002,415.426z"/>
	</g>
</g>
<g>
	<g>
		<path d="M256.002,293.976c-28.902,0-52.417,23.514-52.417,52.418s23.513,52.418,52.417,52.418
			c28.902,0,52.417-23.514,52.417-52.418S284.904,293.976,256.002,293.976z M256.002,365.42c-10.49,0-19.025-8.535-19.025-19.026
			c-0.001-10.492,8.534-19.026,19.025-19.026c10.49,0,19.025,8.535,19.025,19.026C275.027,356.885,266.492,365.42,256.002,365.42z"
			/>
	</g>
</g>
</svg>