<?xml version="1.0" encoding="iso-8859-1"?>
<!-- Uploaded to: SVG Repo, www.svgrepo.com, Generator: SVG Repo Mixer Tools -->
<svg height="800px" width="800px" version="1.1" id="Layer_1" xmlns="http://www.w3.org/2000/svg" xmlns:xlink="http://www.w3.org/1999/xlink" 
	 viewBox="0 0 481.6 481.6" xml:space="preserve">
<path style="fill:#FF7A17;" d="M420.8,450.4c0,17.6-14.4,31.2-31.2,31.2H92c-17.6,0-31.2-14.4-31.2-31.2V31.2C60.8,13.6,75.2,0,92,0
	h297.6c17.6,0,31.2,14.4,31.2,31.2V450.4z"/>
<path style="fill:#F74D19;" d="M60.8,31.2C60.8,13.6,75.2,0,92,0h297.6c17.6,0,31.2,14.4,31.2,31.2v418.4
	c0,17.6-14.4,31.2-31.2,31.2"/>
<g>
	<path style="fill:#3F4A4C;" d="M100,37.6c-4,4.8-3.2,12,1.6,16c4.8,4.8,11.2,4.8,16,0.8L100,37.6z"/>
	<path style="fill:#3F4A4C;" d="M102.4,35.2L120,52.8c3.2-4.8,3.2-12-1.6-16C114.4,32,107.2,31.2,102.4,35.2z"/>
	<path style="fill:#3F4A4C;" d="M359.2,47.2c0.8,6.4,6.4,10.4,12,10.4c6.4,0,11.2-4.8,12-10.4H359.2z"/>
	<path style="fill:#3F4A4C;" d="M359.2,43.2H384c-0.8-5.6-5.6-10.4-12-10.4C365.6,32.8,360.8,37.6,359.2,43.2z"/>
	<path style="fill:#3F4A4C;" d="M381.6,444c4-4.8,3.2-12-1.6-16c-4.8-4.8-11.2-4.8-16-0.8L381.6,444z"/>
	<path style="fill:#3F4A4C;" d="M379.2,446.4l-17.6-17.6c-3.2,4.8-3.2,12,1.6,16C367.2,449.6,374.4,450.4,379.2,446.4z"/>
	<path style="fill:#3F4A4C;" d="M122.4,434.4c-0.8-6.4-6.4-10.4-12-10.4c-6.4,0-11.2,4.8-12,10.4H122.4z"/>
	<path style="fill:#3F4A4C;" d="M122.4,438.4H97.6c0.8,6.4,6.4,10.4,12,10.4C116,448.8,120.8,444,122.4,438.4z"/>
</g>
<circle style="fill:#F74D19;" cx="240.8" cy="109.6" r="75.2"/>
<path style="fill:#FF7A17;" d="M165.6,108.8c0-41.6,33.6-75.2,75.2-75.2S316,67.2,316,108.8"/>
<circle style="fill:#3F4A4C;" cx="240.8" cy="109.6" r="65.6"/>
<path style="fill:#121C1B;" d="M194.4,62.4c25.6-25.6,67.2-25.6,92.8,0c25.6,25.6,25.6,67.2,0,92.8"/>
<circle style="fill:#3F4A4C;" cx="240.8" cy="109.6" r="55.2"/>
<path style="fill:#121C1B;" d="M240.8,53.6c30.4,0,55.2,24.8,55.2,55.2S271.2,164,240.8,164"/>
<circle style="fill:#FF7A17;" cx="240.8" cy="108.8" r="30.4"/>
<g>
	<path style="fill:#F74D19;" d="M219.2,88c12-12,31.2-12,43.2,0c12,12,12,31.2,0,43.2"/>
	<circle style="fill:#F74D19;" cx="240.8" cy="312" r="132.8"/>
</g>
<path style="fill:#FF7A17;" d="M108,312c0-73.6,59.2-132.8,132.8-132.8S373.6,238.4,373.6,312"/>
<path style="fill:#3F4A4C;" d="M356.8,312c0,64-52,116-116,116s-116-52-116-116s52-116,116-116C304.8,196,356.8,248,356.8,312z"/>
<path style="fill:#121C1B;" d="M158.4,230.4c45.6-45.6,118.4-45.6,164,0s45.6,118.4,0,164"/>
<circle style="fill:#3F4A4C;" cx="240.8" cy="312" r="97.6"/>
<path style="fill:#121C1B;" d="M240.8,214.4c54.4,0,97.6,44,97.6,97.6c0,54.4-44,97.6-97.6,97.6"/>
<path style="fill:#FF7A17;" d="M294.4,312c0,29.6-24,53.6-53.6,53.6s-53.6-24-53.6-53.6s24-53.6,53.6-53.6S294.4,282.4,294.4,312z"
	/>
<path style="fill:#F74D19;" d="M202.4,274.4c20.8-20.8,55.2-20.8,76,0s20.8,55.2,0,76"/>
</svg>