<?xml version="1.0" encoding="iso-8859-1"?>
<!-- Uploaded to: SVG Repo, www.svgrepo.com, Generator: SVG Repo Mixer Tools -->
<svg fill="#000000" height="800px" width="800px" version="1.1" id="Layer_1" xmlns="http://www.w3.org/2000/svg" xmlns:xlink="http://www.w3.org/1999/xlink" 
	 viewBox="0 0 512 512" xml:space="preserve">
<g>
	<g>
		<path d="M256.008,80c-15.436,0-28,12.564-28,28s12.564,28,28,28c15.436,0,28-12.564,28-28S271.444,80,256.008,80z"/>
	</g>
</g>
<g>
	<g>
		<path d="M256.008,276c-26.468,0-48,21.532-48,48c0,26.468,21.532,48,48,48s48-21.532,48-48
			C304.008,297.532,282.476,276,256.008,276z"/>
	</g>
</g>
<g>
	<g>
		<path d="M400,0H112C87.7,0,68,19.7,68,44v424c0,24.3,19.7,44,44,44h288c24.3,0,44-19.7,44-44V44C444,19.7,424.3,0,400,0z
			 M256.008,52c30.88,0,56,25.12,56,56s-25.12,56-56,56s-56-25.12-56-56S225.128,52,256.008,52z M112.008,480
			c-6.616,0-12-5.384-12-12c0-6.616,5.384-12,12-12c6.616,0,12,5.384,12,12C124.008,474.616,118.624,480,112.008,480z M112.008,56
			c-6.616,0-12-5.384-12-12s5.384-12,12-12c6.616,0,12,5.384,12,12S118.624,56,112.008,56z M256.008,444
			c-66.168,0-120-53.832-120-120s53.832-120,120-120s120,53.832,120,120S322.176,444,256.008,444z M400.008,480
			c-6.616,0-12-5.384-12-12c0-6.616,5.384-12,12-12c6.616,0,12,5.384,12,12C412.008,474.616,406.624,480,400.008,480z M400.008,56
			c-6.616,0-12-5.384-12-12s5.384-12,12-12c6.616,0,12,5.384,12,12S406.624,56,400.008,56z"/>
	</g>
</g>
</svg>